<svg aria-hidden="true" style="position:absolute;width:0;height:0;overflow:hidden" xmlns="http://www.w3.org/2000/svg"><defs><symbol id="palma" viewBox="0 0 28 32"><path fill="#4b321d" style="fill:var(--color1, #4b321d)" d="M28.013 9.674c-1.844-3.867-5.667-6.288-9.087-6.389a13.15 13.15 0 0 1 2.783-2.186c.469-.269.302-.941-.235-1.009-2.75-.202-5.466.639-7.31 2.286C12.018.661 8.866-.314 5.68.09c-.537.067-.637.841-.101 1.042 1.341.504 2.582 1.21 3.622 2.085-3.487.067-7.344 2.623-9.154 6.59-.201.471.302.941.738.672 2.247-1.244 4.728-2.152 6.841-2.32-2.649 1.715-4.024 5.212-3.655 8.709.067.538.771.672 1.006.202 1.844-3.497 4.359-5.38 6.874-5.447.972 9.28-.738 17.047-1.375 19.536-.101.437.201.841.637.841h5.634c.369 0 .637-.269.671-.639.034-.471.034-1.143.067-2.051l-2.113-.235c-.168-.034-.168-.403 0-.403l2.146-.235c0-1.11 0-2.455-.067-3.968l-2.18-.235c-.168-.034-.168-.403 0-.403l2.146-.235c-.034-1.21-.134-2.555-.235-3.934l-2.247-.269c-.168-.034-.168-.403 0-.403l2.18-.235a57.688 57.688 0 0 0-.436-3.968l-1.978-.336c-.168 0-.168-.404 0-.404l1.844-.202c-.101-.773-.235-1.547-.335-2.32 2.616.336 4.996 2.253 6.539 5.817.201.471.905.37 1.006-.134.738-3.867-.536-7.431-3.219-9.146 1.844.168 4.125 1.009 6.774 2.354.436.202.939-.269.704-.74z"/></symbol><symbol id="logo" viewBox="0 0 86 32"><path fill="#4b321d" style="fill:var(--color1, #4b321d)" d="M40.173 12.88c-1.389.195-2.084 1.82-2.084 4.849s.694 4.412 2.084 4.112c1.389-.3 2.084-1.927 2.084-4.853-.002-2.929-.695-4.306-2.084-4.108zM8.277 16.657c1.611.264 3.223.452 4.834.577a705.496 705.496 0 0 1-2.324-7.741c-.837 2.37-1.673 4.758-2.51 7.164z"/><path fill="#4b321d" style="fill:var(--color1, #4b321d)" d="M84.493 17.963v-2.654c0-2.383-1.199-4.528-3.373-6.039-1.572-1.093-3.681-1.877-6.097-2.268h-.014c-1.229-.193-2.361-.291-3.365-.291-1.696 0-3.046.266-4.124.816a4.946 4.946 0 0 0-1.187.838c-1.359-1.354-3.335-2.12-5.744-2.12-.147 0-.298.002-.447.009h-.018c-.165.007-.33.018-.495.036V5.186C59.624.249 56.078-.001 55.368-.001c-.041 0-.083 0-.124.002-.582.011-1.203.157-2.904.584-.791.2-1.687.425-2.191.516-3.624.616-3.906 3.342-3.906 4.165 0 .788.227 2.102 1.55 3.042v1.159c-1.561-.811-3.427-1.252-5.384-1.252-.552 0-1.112.036-1.66.104-2.262.291-4.511 1.227-6.331 2.615V7.258c0-1.531-.227-2.658-.715-3.549-.733-1.338-2.029-2.104-3.555-2.104-.044 0-.089 0-.133.002h-.018c-.546.018-1.098.159-2.2.448-.743.195-1.763.461-2.278.52-2.684.311-4.483 2.074-4.483 4.39 0 1.329.52 2.408 1.549 3.22v5.364l-1.086-3.267a2208.09 2208.09 0 0 1-1.921-5.785l-.028-.086-.032-.084c-.523-1.331-.972-2.481-1.997-3.369-1.13-.977-2.441-1.2-3.711-1.413a8.584 8.584 0 0 0-1.524-.152c-3.45 0-4.603 2.795-5.224 4.301-1.215 2.911-4.399 13.771-5.325 17.184-.692.527-1.735 1.579-1.735 3.431 0 2.368 1.396 4.133 3.64 4.608 1.045.22 2.116.409 3.184.564.296.041.575.061.839.061 2.441 0 4.144-1.727 4.144-4.201 0-1.554-.69-2.531-1.254-3.099l.016-.07c.676.08 1.357.145 2.047.202l.199.87c.005.023.009.045.016.066a4.055 4.055 0 0 0-.841 2.506c0 1.318.605 2.515 1.66 3.283.823.6 1.841.902 3.03.902.076 0 .154-.002.232-.005a75.27 75.27 0 0 0 5.73-.416 5.83 5.83 0 0 0 1.781-.477 4.318 4.318 0 0 0 1.572.048c1.891-.277 3.86-.618 6.019-1.043a4.825 4.825 0 0 0 3.193-2.238c1.13.454 2.405.702 3.784.702.951 0 1.914-.12 2.863-.359 2.278-.568 4.552-1.754 6.349-3.288a4.131 4.131 0 0 0 2.528.834c.344 0 .697-.039 1.05-.116 1.825-.395 3.473-.725 5.029-1.011a5.205 5.205 0 0 0 1.735-.652c.33.077.676.118 1.036.118.254 0 .513-.02.775-.059a82.971 82.971 0 0 1 4.947-.602 4.985 4.985 0 0 0 2.409-.866c1.183.536 2.583.816 4.133.816h.117c1.219 0 2.283-.127 3.202-.384.777.375 1.561.468 2.047.525 1.249.152 2.503.359 3.718.613.488.102.919.152 1.313.152.876 0 1.639-.241 2.274-.718.852-.641 1.343-1.638 1.343-2.738-.007-1.456-.798-2.37-1.368-2.874zm-63.13 9.359a74.776 74.776 0 0 1-5.501.384c-1.176.036-1.843-.416-1.843-1.186 0-.993 1.041-1.084 1.041-1.627 0-.479-.266-1.232-.96-4.392a56.735 56.735 0 0 1-6.677-.659c-.562 1.977-.908 3.065-.908 3.801 0 1.347 1.362 1.032 1.362 2.422 0 .895-.454 1.322-1.575 1.17a49.416 49.416 0 0 1-2.991-.509c-.855-.175-1.281-.691-1.281-1.654 0-1.202 1.281-1.143 1.442-1.863.481-1.918 4.192-14.141 5.396-16.907.883-2.065 1.389-2.642 3.473-2.274 2.377.384 2.51.538 3.445 2.836.426 1.277 5.662 16.357 5.93 17.25.293 1.104 1.256.607 1.256 1.877-.005.843-.591 1.222-1.607 1.331zm9.118-1.382c-1.957.37-3.917.704-5.875.982-.908.129-1.389-.479-1.389-.993 0-1.204 1.389-.891 1.389-2.479V8.845c0-1.672-1.55-1.004-1.55-2.399 0-.788.802-1.284 1.843-1.4 1.309-.143 3.713-.897 4.247-.916.802-.023 1.336.532 1.336 2.599v15.875c0 1.527 1.389.818 1.389 1.956-.002.482-.481 1.206-1.391 1.379zm9.692-1.792c-3.927.95-8.199-.688-8.227-5.41.027-4.71 4.3-7.682 8.227-8.168 3.926-.479 8.199 1.25 8.227 5.339-.027 4.083-4.302 7.296-8.227 8.239zm23.905-4.674a89.48 89.48 0 0 0-5.128.6c-.908.134-1.389-.302-1.389-.702 0-.936 1.015-.707 1.015-1.931v-4.542c0-1.063-.401-1.872-1.442-1.79-1.041.086-1.442.984-1.442 2.077v4.653c0 1.259 1.016.723 1.016 1.665 0 .4-.481.995-1.389 1.157-1.71.302-3.418.636-5.128.993-.908.191-1.389-.259-1.389-.686 0-1.004 1.016-.807 1.016-2.127V6.683c0-1.395-1.55-.713-1.55-1.874 0-.657.401-1.041 1.442-1.209 1.309-.225 4.112-1.011 4.646-1.016.802-.025 1.336.441 1.336 2.147v5.035c1.096-.661 2.405-1.113 3.606-1.163 3.525-.123 5.155 1.668 5.155 4.392v3.894c0 1.166 1.015.752 1.015 1.625-.002.375-.484.882-1.391.961zm16.508.729a49.375 49.375 0 0 0-3.979-.632c-1.201-.136-1.522-.291-1.735-1.211-.855.891-2.537 1.063-3.979 1.054-3.392 0-4.942-1.613-4.942-3.292 0-2.206 2.349-3.96 8.6-3.149-.053-1.563-.481-2.002-1.575-2.149-1.522-.189-1.522 1.343-3.686 1.209-1.469-.075-2.244-.616-2.244-1.352 0-1.22 2.003-2.074 6.544-1.388 3.686.573 6.971 2.243 6.971 5.189v3.308c0 1.161 1.361 1.175 1.361 2.015 0 .502-.481.57-1.336.398z"/><path fill="#4b321d" style="fill:var(--color1, #4b321d)" d="M71.825 16.209c0 .72.481 1.193 1.176 1.238 1.281.086 1.683-1.259 1.683-2.976-1.655-.218-2.858.42-2.858 1.738z"/></symbol></defs></svg>